<svg width="200" height="200" viewBox="0 0 200 200" fill="none" xmlns="http://www.w3.org/2000/svg">
  <circle cx="100" cy="100" r="100" fill="#0F172A"/>
  <path d="M60 70V130C60 130 70 140 100 140C130 140 140 130 140 130V70C140 70 130 60 100 60C70 60 60 70 60 70Z" stroke="white" stroke-width="6"/>
  <path d="M100 60V140" stroke="white" stroke-width="6" stroke-linecap="round"/>
  <path d="M140 90C140 90 150 100 150 115C150 130 140 140 140 140" stroke="white" stroke-width="6" stroke-linecap="round"/>
  <path d="M60 90C60 90 50 100 50 115C50 130 60 140 60 140" stroke="white" stroke-width="6" stroke-linecap="round"/>
</svg>
