<svg width="800" height="1200" viewBox="0 0 800 1200" fill="none" xmlns="http://www.w3.org/2000/svg">
  <!-- Background -->
  <rect width="800" height="1200" fill="#f8fafc"/>
  
  <!-- Border -->
  <rect x="1" y="1" width="798" height="1198" stroke="#e2e8f0" stroke-width="2" fill="none"/>
  
  <!-- Magazine Icon -->
  <g transform="translate(350, 500)">
    <rect x="0" y="0" width="100" height="140" rx="8" fill="#3b82f6" opacity="0.1"/>
    <rect x="10" y="10" width="80" height="120" rx="4" fill="#3b82f6" opacity="0.2"/>
    <rect x="20" y="30" width="60" height="4" rx="2" fill="#3b82f6"/>
    <rect x="20" y="45" width="40" height="3" rx="1.5" fill="#64748b"/>
    <rect x="20" y="55" width="50" height="3" rx="1.5" fill="#64748b"/>
    <rect x="20" y="65" width="35" height="3" rx="1.5" fill="#64748b"/>
    <rect x="20" y="85" width="60" height="2" rx="1" fill="#94a3b8"/>
    <rect x="20" y="92" width="45" height="2" rx="1" fill="#94a3b8"/>
    <rect x="20" y="99" width="55" height="2" rx="1" fill="#94a3b8"/>
  </g>
  
  <!-- Text -->
  <text x="400" y="680" text-anchor="middle" fill="#64748b" font-family="Arial, sans-serif" font-size="24" font-weight="600">
    Magazine Cover
  </text>
  <text x="400" y="710" text-anchor="middle" fill="#94a3b8" font-family="Arial, sans-serif" font-size="16">
    Placeholder Image
  </text>
  
  <!-- Decorative elements -->
  <circle cx="150" cy="200" r="3" fill="#e2e8f0"/>
  <circle cx="650" cy="300" r="2" fill="#e2e8f0"/>
  <circle cx="100" cy="1000" r="2.5" fill="#e2e8f0"/>
  <circle cx="700" cy="1100" r="3" fill="#e2e8f0"/>
</svg>
